PathFileType	4	(X/Y/Z)	walk-thru1-3-TP.trc
DataRate	CameraRate	NumFrames	NumMarkers	Units	OrigDataRate	OrigDataStartFrame	OrigNumFrames
120.00	120.00	       4	60	mm	120.00	397	       528
Frame#	Time	Top.Head			Front.Head			Rear.Head			Jaw			C7			R.Clavicle			L.Clavicle			R.Shoulder			L.Shoulder			R.Scapula			L.Scapula			R.Scap.Inf			R.Biceps.Lateral			R.Elbow			R.Elbow.Medial			R.Forearm			R.Ulna			R.Radius			R.Wrist			R.Thumb.M1			R.Thumb.M2			R.Thumb.M3			R.Finger3.M1			R.Finger3.M2			R.Finger3.M3			L.Biceps.Lateral			L.Elbow			L.Elbow.Medial			L.Forearm			L.Ulna			L.Radius			L.Wrist			L.Thumb.M1			L.Thumb.M2			L.Thumb.M3			L.Finger3.M1			L.Finger3.M2			L.Finger3.M3			V.Sacral			R.ASIS			L.ASIS			R.Thigh			R.Thigh.Front			R.Knee			R.Knee.Medial			R.Shank			R.Ankle			R.Ankle.Medial			R.Heel			R.Toe			R.MedFoot			L.Thigh			L.Knee			L.Knee.Medial			L.Shank			L.Ankle			L.Ankle.Medial			L.Heel			L.Toe			L.MedFoot			V_mid_ASIS			V_R_Knee_JC			V_L_Knee_JC			V_R_Elbow_JC			V_L_Elbow_JC			V_R_Ankle_JC			V_L_Ankle_JC			V_R_Wrist_JC			V_L_Wrist_JC			V_R_ScaTrpz_1stMC_JC			V_R_1stMC_1stPP_JC			V_R_1stPP_1stDP_JC			V_R_LunCap_3rdMC_JC			V_R_3rdMC_3rdPP_JC			V_R_3rdPP_3rdMP_JC			V_R_3rdMP_3rdDP_JC			V_L_ScaTrpz_1stMC_JC			V_L_1stMC_1stPP_JC			V_L_1stPP_1stDP_JC			V_L_LunCap_3rdMC_JC			V_L_3rdMC_3rdPP_JC			V_L_3rdPP_3rdMP_JC			V_L_3rdMP_3rdPP_JC			V_ROOT_JC			V_R_Hip_JC			V_L_Hip_JC			V_R_GlenHum_JC			V_L_GlenHum_JC			V_ForeHead_Ctr			V_Vertex			V_Sagit_Lambdoid_Suture			V_R_FrontoTemp			V_L_FrontoTemporal			V_R_ParietalOccip			V_L_ParietalOcciptal			V_R_Temporal			V_L_Temporal			V_mid_FrontRearHead			V_mid_RLGlenHumCtrs			V_C7_vert			V_C1_vert			V_Mid_Hip			
		X1	Y1	Z1	X2	Y2	Z2	X3	Y3	Z3	X4	Y4	Z4	X5	Y5	Z5	X6	Y6	Z6	X7	Y7	Z7	X8	Y8	Z8	X9	Y9	Z9	X10	Y10	Z10	X11	Y11	Z11	X12	Y12	Z12	X13	Y13	Z13	X14	Y14	Z14	X15	Y15	Z15	X16	Y16	Z16	X17	Y17	Z17	X18	Y18	Z18	X19	Y19	Z19	X20	Y20	Z20	X21	Y21	Z21	X22	Y22	Z22	X23	Y23	Z23	X24	Y24	Z24	X25	Y25	Z25	X26	Y26	Z26	X27	Y27	Z27	X28	Y28	Z28	X29	Y29	Z29	X30	Y30	Z30	X31	Y31	Z31	X32	Y32	Z32	X33	Y33	Z33	X34	Y34	Z34	X35	Y35	Z35	X36	Y36	Z36	X37	Y37	Z37	X38	Y38	Z38	X39	Y39	Z39	X40	Y40	Z40	X41	Y41	Z41	X42	Y42	Z42	X43	Y43	Z43	X44	Y44	Z44	X45	Y45	Z45	X46	Y46	Z46	X47	Y47	Z47	X48	Y48	Z48	X49	Y49	Z49	X50	Y50	Z50	X51	Y51	Z51	X52	Y52	Z52	X53	Y53	Z53	X54	Y54	Z54	X55	Y55	Z55	X56	Y56	Z56	X57	Y57	Z57	X58	Y58	Z58	X59	Y59	Z59	X60	Y60	Z60	

397	3.300	-235.95067	-4.86469	1566.03760	-334.85489	-4.35618	1463.82898	-121.97675	2.06289	1487.02258	-302.57571	11.03513	1324.02808	-104.79194	19.78285	1374.35327	-188.78300	128.80214	1285.35120	-201.07097	-86.74706	1296.06396	-140.32188	205.75667	1280.30359	-151.22614	-179.49492	1296.07373	-58.43201	104.72596	1295.23120	-56.16487	-76.99443	1299.57874	-12.26609	89.34962	1213.90100	-175.61310	257.08572	1139.28552	-162.62032	279.43188	976.54004	-132.44460	210.07520	957.19379	-247.05894	271.17041	912.19189	-229.59114	297.07147	824.44312	-300.44836	254.04352	786.65845	-300.28159	294.48239	752.57971	-332.43863	256.92224	739.22040	-348.85510	240.58495	706.62640	-362.50665	230.79218	668.12445	-327.72513	308.49533	680.67249	-333.63943	290.70856	631.18317	-329.00040	272.73981	594.78143	-133.36522	-242.51479	1151.40198	-89.45998	-253.78444	1006.45551	-67.23191	-176.35545	997.64117	-181.99440	-236.15910	945.71252	-171.26297	-275.02371	854.26654	-225.48419	-218.07147	814.66998	-234.91745	-267.13843	792.17657	-258.10345	-223.66165	782.08655	-272.12753	-204.17000	744.56512	-281.87897	-196.46646	694.94104	-274.06915	-273.48727	713.05176	-282.06174	-264.84586	673.08917	-276.72836	-234.11526	636.51398	-4.16536	18.07381	905.81012	-204.67799	161.54420	970.73553	-182.56079	-156.09483	959.94122	-229.05888	178.88297	581.25256	-291.37299	99.81967	500.01199	-245.97316	133.47240	446.29865	-247.14438	22.57541	444.88141	-240.78317	76.68190	273.87381	-159.60135	84.56226	62.25858	-174.98267	-4.76398	85.49185	-99.91506	27.50831	39.11238	-299.52380	54.52967	39.33550	-244.46237	15.30619	68.07726	-230.64392	-204.59543	593.11584	-277.27826	-195.12956	454.60736	-311.37491	-75.81801	435.99170	-195.51851	-123.55677	274.81815	-40.03055	-124.56358	143.34183	-71.61007	-39.59288	155.85158	16.67058	-68.81002	149.86726	-151.24942	-93.96530	55.95575	-124.27990	-61.10304	98.79232																																																																																																																															
398	3.308	-240.19600	-4.89376	1566.25488	-338.88129	-4.06622	1463.53491	-126.50154	2.86999	1487.99133	-306.77246	11.45146	1323.63733	-108.74067	19.56510	1374.74426	-194.07733	129.23387	1285.64514	-204.62062	-86.14334	1296.32520	-145.21941	206.74619	1280.38721	-155.52220	-179.29309	1295.81628	-62.44796	106.84535	1294.95911	-59.86899	-76.15276	1299.66846	-16.94256	89.70089	1214.06055	-180.57106	257.04065	1139.94470	-169.37935	279.53711	976.56555	-139.81314	211.71898	957.70905	-255.29507	271.69962	914.09900	-238.94484	297.24237	825.82178	-310.30264	254.13815	788.09070	-310.15540	294.65207	754.17230	-342.76254	256.91339	741.89618	-358.94373	240.62216	709.49469	-372.50488	229.82576	670.29816	-338.64557	308.58182	682.33142	-345.74683	289.72217	634.11066	-341.05847	271.97900	597.17700	-136.84518	-241.63832	1151.80969	-93.51292	-253.55144	1007.00824	-70.71661	-174.76282	997.13104	-185.58519	-234.60211	945.91437	-174.04439	-273.98560	854.59082	-227.97362	-217.32504	815.19202	-238.95940	-266.06686	792.76471	-261.54398	-223.57059	782.44910	-275.74750	-204.27573	744.31415	-285.08200	-196.73972	694.12018	-278.03940	-275.43619	714.58588	-285.63681	-265.20248	674.16058	-280.73318	-234.54887	636.67804	-8.21171	17.55409	905.88715	-207.67880	161.91789	970.73151	-185.35336	-155.49113	959.71429	-231.04247	179.78802	581.20685	-293.26166	99.92965	499.50632	-247.21992	133.41910	446.43472	-246.11079	21.02851	444.86227	-241.69788	76.74335	273.66791	-159.46884	84.60801	62.18852	-175.23006	-4.65833	85.23048	-99.95135	27.40490	39.09495	-299.50705	54.68900	39.34134	-244.40550	15.59814	68.05058	-237.19904	-203.58308	593.70087	-286.74377	-194.13416	455.96817	-318.67477	-75.74017	437.33539	-207.35243	-122.82035	275.27808	-54.19537	-124.54532	140.10446	-85.26157	-39.64055	153.45697	2.96367	-68.64029	145.53267	-167.65135	-95.52338	56.46281	-139.70102	-62.13130	97.43758																																																																																																																															
399	3.317	-243.94310	-5.06569	1565.84912	-343.95090	-4.34125	1463.09741	-130.83217	3.39647	1487.73401	-310.80634	11.69152	1324.10388	-113.12283	20.55936	1375.06030	-198.00446	128.82802	1286.03357	-208.89786	-85.90475	1296.23438	-149.67685	207.20061	1280.66040	-158.94095	-178.71440	1296.36523	-65.73386	107.27646	1295.70630	-64.23856	-76.74879	1299.46423	-20.94559	90.71642	1214.13696	-185.34145	257.18597	1140.22559	-176.62602	279.81052	977.55243	-147.70966	211.78096	957.35034	-262.91681	271.92590	914.71686	-247.34459	296.91760	826.19202	-319.23828	254.55119	790.55969	-319.13651	294.77789	756.63129	-352.34573	256.72659	744.03265	-368.76703	240.96553	711.47021	-383.63901	229.33221	673.58582	-348.66345	308.47787	685.00958	-357.47906	289.58722	635.76581	-351.99850	271.21283	599.17999	-140.60515	-241.51648	1152.14490	-97.12798	-252.52559	1006.78925	-74.68686	-173.28477	997.68121	-189.46715	-234.64619	946.18512	-177.82141	-272.88828	854.74127	-231.78477	-216.64026	815.11658	-242.81889	-265.77747	793.12085	-264.85983	-224.05856	782.43719	-280.20947	-204.13005	744.27386	-288.20001	-197.55446	694.11603	-281.90024	-273.52206	715.16736	-290.00464	-265.47589	674.45313	-284.56747	-235.02774	636.88501	-11.63390	16.99244	906.17957	-211.14841	162.75577	971.52289	-190.51266	-154.44337	960.36346	-233.33731	179.86830	581.22235	-296.39182	98.62627	498.27881	-248.11980	133.92929	446.28290	-247.70157	21.68388	444.53485	-241.21515	78.63739	273.64047	-159.46884	84.60801	62.18852	-176.04192	-5.20793	85.01029	-100.18813	27.50920	38.81178	-299.39661	54.85573	39.26838	-244.18976	15.84644	67.71756	-243.27788	-202.08321	594.19708	-295.50867	-192.35381	458.13596	-326.65271	-74.28623	438.77429	-219.51778	-122.71995	275.85553	-68.58994	-125.19971	137.00317	-99.38527	-39.43753	150.07709	-12.41755	-69.19572	140.76569	-184.32442	-96.20208	55.35692	-155.45612	-62.46311	96.50940																																																																																																																															
400	3.325	-249.04771	-4.38271	1565.09924	-348.04605	-4.20792	1462.84216	-134.94148	3.77895	1487.37585	-314.86642	11.42919	1323.54993	-116.31947	20.86018	1374.69360	-201.59358	129.70114	1285.65601	-212.88371	-85.52932	1296.57520	-154.20715	207.05067	1281.10144	-162.63344	-177.80019	1296.94617	-70.93456	108.02715	1296.46179	-68.04931	-75.95907	1299.75366	-25.58858	91.16660	1214.20959	-191.29858	258.20596	1140.83716	-183.31512	280.89349	977.29718	-155.05264	212.54077	957.04755	-270.82150	272.22333	916.38818	-256.78683	297.32788	828.00848	-328.29825	254.29764	792.84125	-329.22171	294.39465	758.48822	-362.11221	257.40765	746.05066	-379.23135	240.05321	714.82104	-392.94589	228.68878	676.41193	-359.44968	307.73010	686.94586	-366.68973	289.67249	638.18579	-364.03937	270.67554	601.71960	-143.84631	-241.26985	1152.29736	-100.38277	-251.22661	1006.90717	-78.75427	-174.39230	998.32007	-192.51663	-233.53357	946.55005	-180.87624	-271.93341	854.99615	-235.26993	-216.18159	815.33344	-245.66577	-264.99347	793.46149	-268.57443	-222.75246	783.26093	-283.63345	-203.48125	745.07251	-291.45465	-199.10661	693.05786	-286.61960	-273.99350	715.77789	-294.12637	-264.13870	675.27710	-288.44687	-235.33118	637.83032	-15.82309	16.38632	906.29382	-213.66972	163.83820	970.70032	-193.32935	-152.88255	959.74084	-234.96526	180.23166	581.06860	-298.18408	98.88496	498.09763	-249.41855	133.67741	445.37344	-249.19327	22.21284	444.48898	-242.55759	77.19009	273.04224	-158.43663	83.88307	60.23641	-175.20946	-4.76408	85.10504	-100.03542	27.54851	38.69784	-299.26282	55.03274	39.25749	-244.18976	15.84644	67.71756	-249.96465	-201.38708	595.18048	-303.22565	-190.92883	459.00198	-335.18927	-73.01427	440.84558	-230.62108	-122.20863	275.42108	-83.63549	-125.30508	133.21365	-115.01593	-39.85214	146.67371	-26.84913	-69.06691	134.89742	-201.20183	-96.90691	54.85770	-172.66252	-63.92101	95.61062																																																																																																																															
